<?xml version="1.0" encoding="utf-8"?>
<!-- Generator: Adobe Illustrator 17.0.0, SVG Export Plug-In . SVG Version: 6.00 Build 0)  -->
<!DOCTYPE svg PUBLIC "-//W3C//DTD SVG 1.1//EN" "http://www.w3.org/Graphics/SVG/1.1/DTD/svg11.dtd">
<svg version="1.1" id="图层_1" xmlns="http://www.w3.org/2000/svg" xmlns:xlink="http://www.w3.org/1999/xlink" x="0px" y="0px"
	 width="200px" height="200px" viewBox="0 0 200 200" enable-background="new 0 0 200 200" xml:space="preserve">
<g id="XMLID_1_">
	<path id="XMLID_10_" fill="#1372D8" d="M72.004,82.797C52.535,64.705,52.931,41.699,53.029,39.305h0.005v-0.137
		c0.001-0.022,0.003-0.084,0.004-0.098l-0.004,0V28.835h27.38v33.027h15.51V13.326H37.524v25.711
		c-0.142,5.374,0.327,33.194,23.927,55.124c0.204,0.189,20.493,19.334,18.921,44.859l0.042,0.003v32.671h-27.38V134.11h-15.51
		v53.092h58.399v-48.437h-0.057C97.205,106.636,73.044,83.761,72.004,82.797z"/>
	<g id="XMLID_7_">
		<path id="XMLID_9_" fill="#1372D8" d="M65.178,111.536H15.51v-27.38h27.556c-3.389-5.262-5.932-10.513-7.819-15.51H0v58.399
			h71.633C70.269,121.116,67.773,115.839,65.178,111.536z"/>
		<path id="XMLID_8_" fill="#1372D8" d="M69.969,68.647c1.986,2.878,4.377,5.741,7.31,8.466c0.339,0.314,2.96,2.801,6.416,7.043
			h34.243v27.38H99.262c1.703,4.791,3.029,9.976,3.759,15.51h30.427V68.647H69.969z"/>
	</g>
	<g id="XMLID_2_">
		<path id="XMLID_4_" fill="#1372D8" d="M184.49,28.307v142.857h-27.394V28.307H184.49 M200,12.798h-58.414v173.877H200V12.798
			L200,12.798z"/>
	</g>
</g>
</svg>
